<mxfile host="app.diagrams.net" agent="Mozilla/5.0 (X11; Linux x86_64; rv:133.0) Gecko/20100101 Firefox/133.0" version="25.0.3">
  <diagram name="Page-1" id="y3hkHfAynZl3pnnkwFX1">
    <mxGraphModel dx="2284" dy="1849" grid="1" gridSize="10" guides="1" tooltips="1" connect="1" arrows="1" fold="1" page="1" pageScale="1" pageWidth="850" pageHeight="1100" math="0" shadow="0">
      <root>
        <mxCell id="0" />
        <mxCell id="1" parent="0" />
        <mxCell id="lbwXfGIo92KUNlPeVLxW-22" style="edgeStyle=orthogonalEdgeStyle;rounded=0;orthogonalLoop=1;jettySize=auto;html=1;exitX=0;exitY=0.5;exitDx=0;exitDy=0;entryX=1;entryY=0.5;entryDx=0;entryDy=0;" parent="1" source="lbwXfGIo92KUNlPeVLxW-1" target="lbwXfGIo92KUNlPeVLxW-21" edge="1">
          <mxGeometry relative="1" as="geometry" />
        </mxCell>
        <mxCell id="lbwXfGIo92KUNlPeVLxW-31" style="edgeStyle=orthogonalEdgeStyle;rounded=0;orthogonalLoop=1;jettySize=auto;html=1;exitX=0;exitY=0.75;exitDx=0;exitDy=0;entryX=0.5;entryY=0;entryDx=0;entryDy=0;" parent="1" source="lbwXfGIo92KUNlPeVLxW-1" target="lbwXfGIo92KUNlPeVLxW-29" edge="1">
          <mxGeometry relative="1" as="geometry" />
        </mxCell>
        <mxCell id="lbwXfGIo92KUNlPeVLxW-35" style="edgeStyle=orthogonalEdgeStyle;rounded=0;orthogonalLoop=1;jettySize=auto;html=1;exitX=0;exitY=0.5;exitDx=0;exitDy=0;entryX=1;entryY=0.75;entryDx=0;entryDy=0;" parent="1" source="lbwXfGIo92KUNlPeVLxW-1" target="lbwXfGIo92KUNlPeVLxW-34" edge="1">
          <mxGeometry relative="1" as="geometry" />
        </mxCell>
        <mxCell id="9OqFKfZ0Lvg_216pfF7S-1" style="edgeStyle=orthogonalEdgeStyle;rounded=0;orthogonalLoop=1;jettySize=auto;html=1;exitX=0;exitY=0.5;exitDx=0;exitDy=0;entryX=1;entryY=0.75;entryDx=0;entryDy=0;" parent="1" source="lbwXfGIo92KUNlPeVLxW-1" target="lbwXfGIo92KUNlPeVLxW-40" edge="1">
          <mxGeometry relative="1" as="geometry" />
        </mxCell>
        <mxCell id="9OqFKfZ0Lvg_216pfF7S-16" style="edgeStyle=orthogonalEdgeStyle;rounded=0;orthogonalLoop=1;jettySize=auto;html=1;exitX=1;exitY=0.75;exitDx=0;exitDy=0;entryX=0;entryY=0.75;entryDx=0;entryDy=0;" parent="1" source="lbwXfGIo92KUNlPeVLxW-1" target="lbwXfGIo92KUNlPeVLxW-6" edge="1">
          <mxGeometry relative="1" as="geometry" />
        </mxCell>
        <mxCell id="9OqFKfZ0Lvg_216pfF7S-17" style="edgeStyle=orthogonalEdgeStyle;rounded=0;orthogonalLoop=1;jettySize=auto;html=1;exitX=1;exitY=0.25;exitDx=0;exitDy=0;entryX=0.5;entryY=1;entryDx=0;entryDy=0;" parent="1" source="lbwXfGIo92KUNlPeVLxW-1" target="9OqFKfZ0Lvg_216pfF7S-14" edge="1">
          <mxGeometry relative="1" as="geometry" />
        </mxCell>
        <mxCell id="ZVpbq_0JM9wJWWqOyXXS-6" style="edgeStyle=orthogonalEdgeStyle;rounded=0;orthogonalLoop=1;jettySize=auto;html=1;exitX=0.75;exitY=1;exitDx=0;exitDy=0;entryX=0.25;entryY=0;entryDx=0;entryDy=0;" parent="1" source="lbwXfGIo92KUNlPeVLxW-1" target="ZVpbq_0JM9wJWWqOyXXS-4" edge="1">
          <mxGeometry relative="1" as="geometry" />
        </mxCell>
        <mxCell id="lbwXfGIo92KUNlPeVLxW-1" value="Public Timeline" style="rounded=0;whiteSpace=wrap;html=1;fillColor=#ffe6cc;strokeColor=#d79b00;" parent="1" vertex="1">
          <mxGeometry x="320" y="80" width="120" height="60" as="geometry" />
        </mxCell>
        <mxCell id="lbwXfGIo92KUNlPeVLxW-5" style="edgeStyle=orthogonalEdgeStyle;rounded=0;orthogonalLoop=1;jettySize=auto;html=1;exitX=0.5;exitY=1;exitDx=0;exitDy=0;entryX=0.5;entryY=0;entryDx=0;entryDy=0;" parent="1" source="lbwXfGIo92KUNlPeVLxW-4" target="lbwXfGIo92KUNlPeVLxW-1" edge="1">
          <mxGeometry relative="1" as="geometry" />
        </mxCell>
        <mxCell id="lbwXfGIo92KUNlPeVLxW-4" value="" style="ellipse;whiteSpace=wrap;html=1;aspect=fixed;" parent="1" vertex="1">
          <mxGeometry x="370" y="20" width="20" height="20" as="geometry" />
        </mxCell>
        <mxCell id="9OqFKfZ0Lvg_216pfF7S-11" style="edgeStyle=orthogonalEdgeStyle;rounded=0;orthogonalLoop=1;jettySize=auto;html=1;exitX=0.5;exitY=0;exitDx=0;exitDy=0;entryX=0.5;entryY=1;entryDx=0;entryDy=0;" parent="1" source="lbwXfGIo92KUNlPeVLxW-6" target="lbwXfGIo92KUNlPeVLxW-37" edge="1">
          <mxGeometry relative="1" as="geometry" />
        </mxCell>
        <mxCell id="lbwXfGIo92KUNlPeVLxW-6" value="&quot;About me&quot; page" style="rounded=0;whiteSpace=wrap;html=1;fillColor=#ffe6cc;strokeColor=#d79b00;" parent="1" vertex="1">
          <mxGeometry x="577" y="80" width="120" height="60" as="geometry" />
        </mxCell>
        <mxCell id="lbwXfGIo92KUNlPeVLxW-9" value="Click &quot;about me&quot;" style="text;html=1;align=center;verticalAlign=middle;resizable=0;points=[];autosize=1;strokeColor=none;fillColor=none;" parent="1" vertex="1">
          <mxGeometry x="450" y="119" width="110" height="30" as="geometry" />
        </mxCell>
        <mxCell id="lbwXfGIo92KUNlPeVLxW-11" value="&lt;div&gt;Public timeline&lt;/div&gt;&lt;div&gt;(unauthorized)&lt;br&gt;&lt;/div&gt;" style="rounded=0;whiteSpace=wrap;html=1;fillColor=#ffe6cc;strokeColor=#d79b00;" parent="1" vertex="1">
          <mxGeometry x="577" y="-130" width="120" height="60" as="geometry" />
        </mxCell>
        <mxCell id="lbwXfGIo92KUNlPeVLxW-13" value="&lt;div&gt;Click &quot;Forget me!&quot;&lt;/div&gt;" style="text;html=1;align=center;verticalAlign=middle;resizable=0;points=[];autosize=1;strokeColor=none;fillColor=none;" parent="1" vertex="1">
          <mxGeometry x="630" y="40" width="120" height="30" as="geometry" />
        </mxCell>
        <mxCell id="lbwXfGIo92KUNlPeVLxW-14" value="&lt;div&gt;Start when&lt;br&gt;&lt;/div&gt;&lt;div&gt;logged in&lt;/div&gt;" style="text;html=1;align=center;verticalAlign=middle;resizable=0;points=[];autosize=1;strokeColor=none;fillColor=none;" parent="1" vertex="1">
          <mxGeometry x="356" y="-18" width="80" height="40" as="geometry" />
        </mxCell>
        <mxCell id="ZVpbq_0JM9wJWWqOyXXS-9" style="edgeStyle=orthogonalEdgeStyle;rounded=0;orthogonalLoop=1;jettySize=auto;html=1;exitX=0;exitY=0.75;exitDx=0;exitDy=0;entryX=0.25;entryY=1;entryDx=0;entryDy=0;" parent="1" source="lbwXfGIo92KUNlPeVLxW-18" target="lbwXfGIo92KUNlPeVLxW-29" edge="1">
          <mxGeometry relative="1" as="geometry" />
        </mxCell>
        <mxCell id="lbwXfGIo92KUNlPeVLxW-18" value="Private timeline" style="rounded=0;whiteSpace=wrap;html=1;fillColor=#ffe6cc;strokeColor=#d79b00;" parent="1" vertex="1">
          <mxGeometry x="290" y="300" width="120" height="60" as="geometry" />
        </mxCell>
        <mxCell id="lbwXfGIo92KUNlPeVLxW-20" value="Click &quot;private timeline&quot;" style="text;html=1;align=center;verticalAlign=middle;resizable=0;points=[];autosize=1;strokeColor=none;fillColor=none;" parent="1" vertex="1">
          <mxGeometry x="344" y="250" width="140" height="30" as="geometry" />
        </mxCell>
        <mxCell id="ZVpbq_0JM9wJWWqOyXXS-2" style="edgeStyle=orthogonalEdgeStyle;rounded=0;orthogonalLoop=1;jettySize=auto;html=1;exitX=0.5;exitY=1;exitDx=0;exitDy=0;entryX=0.5;entryY=1;entryDx=0;entryDy=0;" parent="1" source="lbwXfGIo92KUNlPeVLxW-21" target="lbwXfGIo92KUNlPeVLxW-18" edge="1">
          <mxGeometry relative="1" as="geometry" />
        </mxCell>
        <mxCell id="lbwXfGIo92KUNlPeVLxW-21" value="Recheep is saved and added to private timeline" style="rounded=0;whiteSpace=wrap;html=1;fillColor=#d5e8d4;strokeColor=#82b366;" parent="1" vertex="1">
          <mxGeometry x="-39" y="80" width="120" height="60" as="geometry" />
        </mxCell>
        <mxCell id="lbwXfGIo92KUNlPeVLxW-23" value="Click other users displayname" style="text;html=1;align=center;verticalAlign=middle;resizable=0;points=[];autosize=1;strokeColor=none;fillColor=none;" parent="1" vertex="1">
          <mxGeometry x="81" y="-88" width="180" height="30" as="geometry" />
        </mxCell>
        <mxCell id="ZVpbq_0JM9wJWWqOyXXS-3" style="edgeStyle=orthogonalEdgeStyle;rounded=0;orthogonalLoop=1;jettySize=auto;html=1;exitX=0.5;exitY=1;exitDx=0;exitDy=0;entryX=0;entryY=0.5;entryDx=0;entryDy=0;" parent="1" source="lbwXfGIo92KUNlPeVLxW-29" target="lbwXfGIo92KUNlPeVLxW-18" edge="1">
          <mxGeometry relative="1" as="geometry" />
        </mxCell>
        <mxCell id="lbwXfGIo92KUNlPeVLxW-29" value="Cheep is saved" style="rounded=0;whiteSpace=wrap;html=1;fillColor=#d5e8d4;strokeColor=#82b366;" parent="1" vertex="1">
          <mxGeometry x="190" y="190" width="120" height="60" as="geometry" />
        </mxCell>
        <mxCell id="lbwXfGIo92KUNlPeVLxW-32" value="Write cheep" style="text;html=1;align=center;verticalAlign=middle;resizable=0;points=[];autosize=1;strokeColor=none;fillColor=none;" parent="1" vertex="1">
          <mxGeometry x="169" y="155" width="90" height="30" as="geometry" />
        </mxCell>
        <mxCell id="ZVpbq_0JM9wJWWqOyXXS-8" style="edgeStyle=orthogonalEdgeStyle;rounded=0;orthogonalLoop=1;jettySize=auto;html=1;exitX=0;exitY=0.5;exitDx=0;exitDy=0;entryX=0.25;entryY=0;entryDx=0;entryDy=0;" parent="1" source="lbwXfGIo92KUNlPeVLxW-34" target="lbwXfGIo92KUNlPeVLxW-1" edge="1">
          <mxGeometry relative="1" as="geometry">
            <Array as="points">
              <mxPoint x="-59" y="20" />
              <mxPoint x="-59" y="-120" />
              <mxPoint x="350" y="-120" />
            </Array>
          </mxGeometry>
        </mxCell>
        <mxCell id="lbwXfGIo92KUNlPeVLxW-34" value="Follow is saved, and cheeps are added to private timeline" style="rounded=0;whiteSpace=wrap;html=1;fillColor=#d5e8d4;strokeColor=#82b366;" parent="1" vertex="1">
          <mxGeometry x="-39" y="-10" width="120" height="60" as="geometry" />
        </mxCell>
        <mxCell id="9OqFKfZ0Lvg_216pfF7S-12" style="edgeStyle=orthogonalEdgeStyle;rounded=0;orthogonalLoop=1;jettySize=auto;html=1;exitX=0.5;exitY=0;exitDx=0;exitDy=0;entryX=0.5;entryY=1;entryDx=0;entryDy=0;" parent="1" source="lbwXfGIo92KUNlPeVLxW-37" target="lbwXfGIo92KUNlPeVLxW-11" edge="1">
          <mxGeometry relative="1" as="geometry" />
        </mxCell>
        <mxCell id="lbwXfGIo92KUNlPeVLxW-37" value="&lt;div&gt;Personal data is deleted&lt;/div&gt;&lt;div&gt;User is logged out&lt;br&gt;&lt;/div&gt;" style="rounded=0;whiteSpace=wrap;html=1;fillColor=#d5e8d4;strokeColor=#82b366;" parent="1" vertex="1">
          <mxGeometry x="577" y="-28" width="120" height="60" as="geometry" />
        </mxCell>
        <mxCell id="lbwXfGIo92KUNlPeVLxW-40" value="Other users private timeline" style="rounded=0;whiteSpace=wrap;html=1;fillColor=#ffe6cc;strokeColor=#d79b00;" parent="1" vertex="1">
          <mxGeometry x="-39" y="-103" width="120" height="60" as="geometry" />
        </mxCell>
        <mxCell id="9OqFKfZ0Lvg_216pfF7S-2" value="Click follow" style="text;html=1;align=center;verticalAlign=middle;resizable=0;points=[];autosize=1;strokeColor=none;fillColor=none;" parent="1" vertex="1">
          <mxGeometry x="94" y="28" width="80" height="30" as="geometry" />
        </mxCell>
        <mxCell id="9OqFKfZ0Lvg_216pfF7S-3" value="Click recheep" style="text;html=1;align=center;verticalAlign=middle;resizable=0;points=[];autosize=1;strokeColor=none;fillColor=none;" parent="1" vertex="1">
          <mxGeometry x="81" y="110" width="100" height="30" as="geometry" />
        </mxCell>
        <mxCell id="9OqFKfZ0Lvg_216pfF7S-10" style="edgeStyle=orthogonalEdgeStyle;rounded=0;orthogonalLoop=1;jettySize=auto;html=1;exitX=0.25;exitY=1;exitDx=0;exitDy=0;entryX=0.5;entryY=0;entryDx=0;entryDy=0;" parent="1" source="lbwXfGIo92KUNlPeVLxW-1" target="lbwXfGIo92KUNlPeVLxW-18" edge="1">
          <mxGeometry relative="1" as="geometry" />
        </mxCell>
        <mxCell id="EZaodzPdwQsRePZoDb14-2" style="edgeStyle=orthogonalEdgeStyle;rounded=0;orthogonalLoop=1;jettySize=auto;html=1;exitX=0.5;exitY=0;exitDx=0;exitDy=0;entryX=0.5;entryY=1;entryDx=0;entryDy=0;" parent="1" source="9OqFKfZ0Lvg_216pfF7S-14" target="9OqFKfZ0Lvg_216pfF7S-20" edge="1">
          <mxGeometry relative="1" as="geometry" />
        </mxCell>
        <mxCell id="9OqFKfZ0Lvg_216pfF7S-14" value="Logout page" style="rounded=0;whiteSpace=wrap;html=1;fillColor=#ffe6cc;strokeColor=#d79b00;" parent="1" vertex="1">
          <mxGeometry x="415" y="-130" width="120" height="60" as="geometry" />
        </mxCell>
        <mxCell id="9OqFKfZ0Lvg_216pfF7S-19" value="Click &quot;Logout&quot;" style="text;html=1;align=center;verticalAlign=middle;resizable=0;points=[];autosize=1;strokeColor=none;fillColor=none;" parent="1" vertex="1">
          <mxGeometry x="473" y="42" width="100" height="30" as="geometry" />
        </mxCell>
        <mxCell id="EZaodzPdwQsRePZoDb14-4" style="edgeStyle=orthogonalEdgeStyle;rounded=0;orthogonalLoop=1;jettySize=auto;html=1;exitX=1;exitY=0.5;exitDx=0;exitDy=0;entryX=0;entryY=0.5;entryDx=0;entryDy=0;" parent="1" source="9OqFKfZ0Lvg_216pfF7S-20" target="EZaodzPdwQsRePZoDb14-3" edge="1">
          <mxGeometry relative="1" as="geometry" />
        </mxCell>
        <mxCell id="9OqFKfZ0Lvg_216pfF7S-20" value="User is logged out" style="rounded=0;whiteSpace=wrap;html=1;fillColor=#d5e8d4;strokeColor=#82b366;" parent="1" vertex="1">
          <mxGeometry x="415" y="-240" width="120" height="60" as="geometry" />
        </mxCell>
        <mxCell id="EZaodzPdwQsRePZoDb14-1" value="Click &quot;Click here to Logout&quot;" style="text;html=1;align=center;verticalAlign=middle;resizable=0;points=[];autosize=1;strokeColor=none;fillColor=none;" parent="1" vertex="1">
          <mxGeometry x="314" y="-170" width="170" height="30" as="geometry" />
        </mxCell>
        <mxCell id="EZaodzPdwQsRePZoDb14-3" value="&lt;div&gt;Logout page&lt;/div&gt;&lt;div&gt;(Logged out)&lt;br&gt;&lt;/div&gt;" style="rounded=0;whiteSpace=wrap;html=1;fillColor=#ffe6cc;strokeColor=#d79b00;" parent="1" vertex="1">
          <mxGeometry x="577" y="-240" width="120" height="60" as="geometry" />
        </mxCell>
        <mxCell id="ZVpbq_0JM9wJWWqOyXXS-5" style="edgeStyle=orthogonalEdgeStyle;rounded=0;orthogonalLoop=1;jettySize=auto;html=1;exitX=0;exitY=0.5;exitDx=0;exitDy=0;entryX=0.5;entryY=1;entryDx=0;entryDy=0;" parent="1" source="ZVpbq_0JM9wJWWqOyXXS-4" target="lbwXfGIo92KUNlPeVLxW-1" edge="1">
          <mxGeometry relative="1" as="geometry" />
        </mxCell>
        <mxCell id="ZVpbq_0JM9wJWWqOyXXS-4" value="Change page " style="rounded=0;whiteSpace=wrap;html=1;fillColor=#d5e8d4;strokeColor=#82b366;" parent="1" vertex="1">
          <mxGeometry x="600" y="210" width="120" height="60" as="geometry" />
        </mxCell>
        <mxCell id="ZVpbq_0JM9wJWWqOyXXS-7" value="Click &quot;Next page/Previous Page&quot;" style="text;html=1;align=center;verticalAlign=middle;resizable=0;points=[];autosize=1;strokeColor=none;fillColor=none;" parent="1" vertex="1">
          <mxGeometry x="423" y="168" width="200" height="30" as="geometry" />
        </mxCell>
        <mxCell id="ZVpbq_0JM9wJWWqOyXXS-10" value="Write cheep" style="text;html=1;align=center;verticalAlign=middle;resizable=0;points=[];autosize=1;strokeColor=none;fillColor=none;" parent="1" vertex="1">
          <mxGeometry x="130" y="290" width="90" height="30" as="geometry" />
        </mxCell>
      </root>
    </mxGraphModel>
  </diagram>
</mxfile>
